<svg id="图层_1" data-name="图层 1" xmlns="http://www.w3.org/2000/svg" viewBox="0 0 24 24"><defs><style>.cls-1{fill:#fff;}</style></defs><title>网络z</title><path class="cls-1" d="M12.75,3a10,10,0,0,0-4.5,1.08V1h-6V5h-1V9h0v2H3a10.2,10.2,0,0,0-.2,2,10,10,0,0,0,1.5,5.24V23h2V20.58A9.91,9.91,0,0,0,12.75,23a10,10,0,0,0,0-20Zm7.92,9h-3a14.35,14.35,0,0,0-2.58-6.64A8,8,0,0,1,20.67,12Zm-5,0H9.82a13.51,13.51,0,0,1,2.93-6.47A13.51,13.51,0,0,1,15.68,12ZM9.25,7V5.82a7.55,7.55,0,0,1,1.14-.46A17.21,17.21,0,0,0,9.25,7.27Zm-5-4h2V5h-2ZM5.83,9H3.25V7h4V9H5.83Zm2.11,2c-.06.33-.11.66-.14,1H6.25V11H7.94ZM6.25,17.65V14H7.81a14.35,14.35,0,0,0,2.58,6.64A8,8,0,0,1,6.25,17.65ZM9.82,14h5.86a13.51,13.51,0,0,1-2.93,6.47A13.51,13.51,0,0,1,9.82,14Zm5.29,6.64A14.35,14.35,0,0,0,17.69,14h3A8,8,0,0,1,15.11,20.64Z"/></svg>