<svg id="图层_1" data-name="图层 1" xmlns="http://www.w3.org/2000/svg" viewBox="0 0 24 24"><defs><style>.cls-1{fill:none;}.cls-2{fill:#404040;}</style></defs><title>1网络</title><rect class="cls-1" x="4" y="3" width="2" height="2"/><path class="cls-1" d="M7.69,11H6v6.65a8,8,0,0,0,4.14,3A13.87,13.87,0,0,1,7.5,13,10.85,10.85,0,0,1,7.69,11Z"/><path class="cls-1" d="M9,7.27a17.21,17.21,0,0,1,1.14-1.91A7.55,7.55,0,0,0,9,5.82V7.27Z"/><ellipse class="cls-1" cx="12.5" cy="13" rx="3" ry="7.47"/><path class="cls-1" d="M14.86,20.64a8,8,0,0,0,0-15.28A13.87,13.87,0,0,1,17.5,13,13.87,13.87,0,0,1,14.86,20.64Z"/><path class="cls-2" d="M12.5,3A10,10,0,0,0,8,4.08V1H2V5H1V9H1v2H2.7a10.2,10.2,0,0,0-.2,2A10,10,0,0,0,4,18.24V23H6V20.58A9.91,9.91,0,0,0,12.5,23a10,10,0,0,0,0-20Zm7.92,9h-3a14.35,14.35,0,0,0-2.58-6.64A8,8,0,0,1,20.42,12Zm-5,0H9.57A13.51,13.51,0,0,1,12.5,5.53,13.51,13.51,0,0,1,15.43,12ZM9,7V5.82a7.55,7.55,0,0,1,1.14-.46A17.21,17.21,0,0,0,9,7.27ZM4,3H6V5H4ZM5.58,9H3V7H7V9H5.58Zm2.11,2c-.06.33-.11.66-.14,1H6V11H7.69ZM6,17.65V14H7.56a14.35,14.35,0,0,0,2.58,6.64A8,8,0,0,1,6,17.65ZM9.57,14h5.86a13.51,13.51,0,0,1-2.93,6.47A13.51,13.51,0,0,1,9.57,14Zm5.29,6.64A14.35,14.35,0,0,0,17.44,14h3A8,8,0,0,1,14.86,20.64Z"/></svg>