<svg id="图层_1" data-name="图层 1" xmlns="http://www.w3.org/2000/svg" viewBox="0 0 16 16"><defs><style>.cls-1{fill:#404040;}</style></defs><title>code_set</title><path class="cls-1" d="M7.05,1.5H9a1,1,0,0,1,1,.94V3.74a5.1,5.1,0,0,1,.91.52l1.42-.78a.73.73,0,0,1,1,.27l1.17,2a.67.67,0,0,1-.27.94l-1.39.76a4.57,4.57,0,0,1,0,.52,4.23,4.23,0,0,1,0,.5l1.42.81a.68.68,0,0,1,.25.95l-1.22,2a.71.71,0,0,1-.62.34.74.74,0,0,1-.37-.1l-1.36-.78a5.8,5.8,0,0,1-.52.34.68.68,0,0,0-.39.6l0,1.17a.69.69,0,0,1-.71.68h0l-2.39,0a.7.7,0,0,1-.71-.69V12.67a.69.69,0,0,0-.39-.62,5.69,5.69,0,0,1-.52-.33l-1.42.78a.73.73,0,0,1-.35.09.74.74,0,0,1-.63-.35l-1.17-2a.68.68,0,0,1,.27-.94l1.39-.76a4.36,4.36,0,0,1,0-.52,3.87,3.87,0,0,1,0-.49L1.85,6.68a.68.68,0,0,1-.25-.95l1.22-2a.71.71,0,0,1,.62-.34.74.74,0,0,1,.37.1l1.36.78a4.78,4.78,0,0,1,.91-.52V2.43a1,1,0,0,1,1-.93m0-1a2,2,0,0,0-2,1.93v.64L4.3,2.62A1.73,1.73,0,0,0,2,3.21l-1.22,2A1.67,1.67,0,0,0,.55,6.5a1.73,1.73,0,0,0,.8,1L2.13,8l-.73.4a1.66,1.66,0,0,0-.82,1,1.62,1.62,0,0,0,.16,1.29l1.18,2a1.74,1.74,0,0,0,2.32.64l.85-.47v.85A1.66,1.66,0,0,0,5.58,15a1.73,1.73,0,0,0,1.2.49l2.39,0a1.71,1.71,0,0,0,1.73-1.67v-.92l.79.45A1.73,1.73,0,0,0,14,12.77l1.22-2a1.67,1.67,0,0,0,.2-1.29,1.71,1.71,0,0,0-.8-1L13.87,8l.73-.4a1.66,1.66,0,0,0,.82-1,1.62,1.62,0,0,0-.16-1.29l-1.18-2a1.72,1.72,0,0,0-1.49-.85,1.82,1.82,0,0,0-.83.21l-.85.47V2.46a1.93,1.93,0,0,0-.55-1.36A2,2,0,0,0,9,.51H7.05Z"/><path class="cls-1" d="M8,6A2,2,0,1,1,6,8,2,2,0,0,1,8,6M8,5a3,3,0,1,0,3,3A3,3,0,0,0,8,5Z"/></svg>